# xmcd
#
# Track frame offsets: 
#        150
#        11702
#        28354
#        53347
#        76449
#        93581
#        113233
#        130635
#
# Disc length: 1929 seconds
#
# Revision: 0
# Processed by: cddbd v1.5.2PL0 Copyright (c) Steve Scherf et al.
# Submitted via: ExactAudioCopyFreeDBPlugin 1.0
#
DISCID=5e078708
DTITLE=Joe Veal and The Cuttlettes - Milk Fed
DYEAR=1999
DGENRE=Blues
TTITLE0=Messin' with the Kid
TTITLE1=Fire on the Bayou
TTITLE2=Lonely Avenue
TTITLE3=Chain of Fools
TTITLE4=Lovin' You
TTITLE5=Summertime
TTITLE6=Unchain my Heart
TTITLE7=Single Woman Blues
EXTD=
EXTT0=
EXTT1=
EXTT2=
EXTT3=
EXTT4=
EXTT5=
EXTT6=
EXTT7=
PLAYORDER=
